<?xml version="1.0" encoding="UTF-8" standalone="no"?><!DOCTYPE svg PUBLIC "-//W3C//DTD SVG 1.1//EN" "http://www.w3.org/Graphics/SVG/1.1/DTD/svg11.dtd"><svg width="100%" height="100%" viewBox="0 0 207 58" version="1.1" xmlns="http://www.w3.org/2000/svg" xmlns:xlink="http://www.w3.org/1999/xlink" xml:space="preserve" xmlns:serif="http://www.serif.com/" style="fill-rule:evenodd;clip-rule:evenodd;stroke-linejoin:round;stroke-miterlimit:2;"><rect id="Artboard2" x="0.06" y="0.732" width="206.25" height="56.287" style="fill:none;"/><clipPath id="_clip1"><rect x="0.06" y="0.732" width="206.25" height="56.287"/></clipPath><g clip-path="url(#_clip1)"><g><g><g><g><path d="M47.389,1.469l7.215,15.406l3.862,-0.028l7.096,-15.378l-3.813,-0.011l-5.092,12.253l-4.969,-12.265l-4.299,0.023Z" style="fill:#febe10;"/><path d="M62.276,16.843l3.987,-0.03l1.625,-3.535l7.581,-0.039l1.465,3.433l3.565,-0.007l-6.389,-15.185l-4.781,-0.021l-7.053,15.384Zm6.549,-5.738l5.539,0.018l-2.96,-6.821l-2.579,6.803Z" style="fill:#febe10;"/><path d="M83.126,16.628l-0.091,-15.173l4.306,-0.01l8.764,11.29l-0.028,-11.244l4.119,0.028l0.026,14.961l-4.622,0.004l-8.995,-11.133l-0.077,11.288l-3.402,-0.011Z" style="fill:#febe10;"/></g><g><path d="M100.196,1.519l0.026,14.961c0,0 4.288,-0.014 8.285,-0.026c3.735,-0.012 6.757,-3.043 6.757,-6.778c0,-0.013 0,-0.026 0,-0.039c0,-2.166 -0.863,-4.243 -2.398,-5.771c-1.534,-1.529 -3.614,-2.383 -5.78,-2.375c-3.541,0.014 -6.89,0.028 -6.89,0.028Zm3.548,2.964l-0.01,9.322c0,0 1.609,0.011 3.372,0.022c1.189,0.008 2.333,-0.459 3.177,-1.297c0.844,-0.838 1.319,-1.977 1.32,-3.167c0,0 0,0 0,-0.001c0.002,-1.294 -0.512,-2.535 -1.426,-3.45c-0.915,-0.916 -2.156,-1.43 -3.45,-1.429c-1.603,0 -2.983,0 -2.983,0Z" style="fill:#53699d;"/><path d="M117.799,1.485l0.003,15.026l12.066,-0.038l0.006,-2.711l-8.381,-0.009l0.007,-3.926l7.586,0.002l-0.01,-2.386l-7.526,0.031l-0.004,-2.988l8.214,0.04l0.001,-3.047l-11.962,0.006Z" style="fill:#53699d;"/><path d="M133.402,16.47l3.174,0.005l-0.007,-10.248l6.261,10.231l3.481,0l0.036,-14.984l-3.055,-0.002l0.027,10.46l-6.386,-10.467l-3.518,0.028l-0.013,14.977Z" style="fill:#53699d;"/></g></g><g><path d="M32.532,24.138c-0.367,-2.388 -1.112,-3.348 -3.774,-3.558l-28.698,0.027l0,20.625l27.926,0c1.544,0 3.025,-0.614 4.116,-1.706c1.091,-1.093 1.703,-2.574 1.702,-4.118c-0.001,-0.388 -0.001,-0.775 -0.002,-1.154c-0.001,-1.135 -0.456,-2.223 -1.264,-3.02c-0.808,-0.797 -1.901,-1.237 -3.036,-1.223c-0.572,0.007 -0.966,0.012 -0.966,0.012c0,0 0.433,-0.006 1.006,-0.013c1.534,-0.02 2.835,-1.5 3.04,-3.021c0.152,-1.121 0.108,-1.827 -0.05,-2.851Zm-5.69,10.616c0,-1.283 -1.04,-2.322 -2.322,-2.322c-3.027,0 -7.938,0 -7.938,0l0,4.646l7.938,0c1.282,0 2.322,-1.039 2.322,-2.322c0,-0.001 0,-0.002 0,-0.002Zm-0.321,-7.784c0,-1.282 -0.748,-2.322 -2.03,-2.322c-3.027,0 -7.939,0 -7.939,0l0,4.511l7.939,0c1.282,0 2.03,-0.903 2.03,-2.186c0,-0.001 0,-0.002 0,-0.003Z" style="fill:#53699d;"/><path d="M50.11,20.064c8.697,-0.015 13.552,3.855 13.514,10.804c-0.043,7.847 -5.799,11.335 -13.466,11.335c-7.998,0 -13.724,-3.922 -13.628,-11.329c0.089,-6.909 4.081,-10.793 13.58,-10.81Zm0.186,3.796c3.879,0 6.654,3.176 6.654,7.056c0,4.044 -2.912,7.329 -6.792,7.329c-3.88,0 -7.029,-3.283 -7.029,-7.327c0,-4.045 3.287,-7.058 7.167,-7.058Z" style="fill:#53699d;"/><path d="M82.727,35.655c-0.003,-1.855 -3.535,-2.564 -5.049,-2.648c-7.268,-0.402 -11.199,-2.551 -11.244,-5.503c-0.079,-5.123 2.219,-7.29 11.198,-7.305c6.567,-0.012 11.29,2.052 11.073,6.149l-6.081,-0.02c-0.822,-1.607 -2.674,-2.349 -4.807,-2.334c-2.891,0.021 -5.002,0.066 -5.092,2.128c-0.097,2.205 2.6,2.582 4.977,2.587c4.346,0.008 9.39,0.851 11.383,3.209c0.582,0.689 0.832,1.892 0.817,2.765c-0.077,4.526 -2.696,7.288 -12.172,7.304c-6.931,0.011 -11.527,-2.052 -11.299,-6.149l6.418,0.02c0.868,1.606 2.821,2.349 5.073,2.333c3.051,-0.021 4.809,-0.473 4.805,-2.536Z" style="fill:#53699d;"/><path d="M118.471,33.561c-1.272,5.858 -6.338,8.5 -13.01,8.5c-7.998,0 -13.147,-3.767 -13.051,-11.173c0.09,-6.91 3.488,-10.949 12.988,-10.966c7.551,-0.013 11.894,2.903 12.965,8.22l-6.834,0c-0.938,-2.587 -2.764,-4.424 -5.715,-4.424c-3.88,0 -7.009,3.013 -7.009,7.058c0,4.044 2.992,7.327 6.871,7.327c2.934,0 4.777,-1.878 5.763,-4.542l7.032,0Z" style="fill:#53699d;"/><path d="M121.902,31.331l24.145,0l0,10.176l-6.605,0l0,-8.546l-11.071,0l0,8.546l-6.469,0l0,-10.176Zm0,-1.787l0,-8.64l6.469,0l0,7.152l11.071,0l0,-7.152l6.605,0l0,8.64l-24.145,0Z" style="fill:#53699d;"/></g></g><g><path d="M197.911,48.571l8.399,0l0,9.161l-8.401,0l0.002,-9.161Z" style="fill:#53699d;"/><path d="M160.639,41.507l-14.592,0l0,-10.176l13.71,0l21.496,-20.899l5.87,5.73l-17.563,17.542l0,24.028l-9.017,0l0.096,-16.225Z" style="fill:#53699d;"/><path d="M159.113,29.544l-13.066,0l0,-8.64l9.572,0l19.079,-19.422l13.206,0l18.406,18.717l0,26.535l-8.398,0l0.005,-22.718l-16.741,-16.713l-22.063,22.241Z" style="fill:#febe10;"/></g></g></g></svg>